<svg width="784.78759765625px" height="200.030029296875px" xmlns="http://www.w3.org/2000/svg" viewBox="-142.393798828125 -25.0150146484375 784.78759765625 200.030029296875" style="background: rgba(0, 0, 0, 0);" preserveAspectRatio="xMidYMid"><defs><filter id="editing-golden" x="-100%" y="-100%" width="300%" height="300%"><feFlood flood-color="#806527" result="flood"></feFlood><feFlood flood-color="#fff694" result="flood-light"></feFlood><feComposite operator="in" in="flood" in2="SourceAlpha" result="flood-comp"></feComposite><feGaussianBlur in="flood-comp" stdDeviation="3" result="blur"></feGaussianBlur><feOffset in="blur" dy="3" result="offset-blur"></feOffset><feComponentTransfer in="offset-blur" result="comp-blur"><feFuncA type="linear" slope="0.7" intercept="-0.1"></feFuncA></feComponentTransfer><feSpecularLighting surfaceScale="200" specularConstant="20" specularExponent="1" lighting-color="#fff" in="blur" result="specular"><fePointLight x="-250" y="-250" z="3500"></fePointLight></feSpecularLighting><feComponentTransfer in="specular" result="inspecular"><feFuncA type="linear" slope="-1" intercept="1"></feFuncA></feComponentTransfer><feComposite operator="in" in="flood-light" in2="inspecular" result="inspecular2"></feComposite><feComposite operator="in" in="inspecular2" in2="SourceAlpha" result="light"></feComposite><feMerge><feMergeNode in="comp-blur"></feMergeNode><feMergeNode in="SourceGraphic"></feMergeNode><feMergeNode in="light"></feMergeNode></feMerge></filter></defs><g filter="url(#editing-golden)"><g transform="translate(-28.17498779296875, 128.66500091552734)"><path d="M65.92-67.19L74.41-35.60L82.32-66.11L82.32-66.11Q82.52-66.99 82.71-67.72L82.71-67.72L82.71-67.72Q82.91-68.46 83.20-68.99L83.20-68.99L83.20-68.99Q83.50-69.53 83.98-69.82L83.98-69.82L83.98-69.82Q84.47-70.12 85.30-70.12L85.30-70.12L90.14-70.12L90.14-70.12Q91.89-70.12 91.89-68.85L91.89-68.85L91.89-68.85Q91.89-67.92 91.41-66.41L91.41-66.41L72.02-4.59L72.02-4.59Q71.34-2.29 70.21-1.15L70.21-1.15L70.21-1.15Q69.09 0 67.33 0L67.33 0L60.40 0L60.40 0Q59.33 0 58.57-0.44L58.57-0.44L58.57-0.44Q57.81-0.88 57.30-1.54L57.30-1.54L57.30-1.54Q56.79-2.20 56.45-2.98L56.45-2.98L56.45-2.98Q56.10-3.76 55.91-4.49L55.91-4.49L47.07-33.25L39.01-4.59L39.01-4.59Q38.38-2.29 37.33-1.15L37.33-1.15L37.33-1.15Q36.28 0 34.57 0L34.57 0L26.42 0L26.42 0Q25.29 0 24.56-0.44L24.56-0.44L24.56-0.44Q23.83-0.88 23.32-1.54L23.32-1.54L23.32-1.54Q22.80-2.20 22.49-3.00L22.49-3.00L22.49-3.00Q22.17-3.81 21.92-4.49L21.92-4.49L0.49-64.40L0.49-64.40Q0-65.67 0-66.80L0-66.80L0-66.80Q0-68.51 0.98-69.31L0.98-69.31L0.98-69.31Q1.95-70.12 3.37-70.12L3.37-70.12L24.02-70.12L24.02-70.12Q25.24-70.12 26.12-69.80L26.12-69.80L26.12-69.80Q27.00-69.48 27.59-69.04L27.59-69.04L27.59-69.04Q28.17-68.60 28.47-68.09L28.47-68.09L28.47-68.09Q28.76-67.58 28.91-67.19L28.91-67.19L39.31-35.60L42.53-47.95L37.50-64.40L37.50-64.40Q37.26-65.09 37.13-65.72L37.13-65.72L37.13-65.72Q37.01-66.36 37.01-66.89L37.01-66.89L37.01-66.89Q37.01-68.60 37.94-69.36L37.94-69.36L37.94-69.36Q38.87-70.12 40.28-70.12L40.28-70.12L60.99-70.12L60.99-70.12Q62.21-70.12 63.06-69.92L63.06-69.92L63.06-69.92Q63.92-69.73 64.45-69.36L64.45-69.36L64.45-69.36Q64.99-68.99 65.33-68.43L65.33-68.43L65.33-68.43Q65.67-67.87 65.92-67.19L65.92-67.19ZM37.55-28.96L25.98-64.40L25.98-64.40Q25.59-65.53 24.95-65.77L24.95-65.77L24.95-65.77Q24.32-66.02 23.68-66.02L23.68-66.02L21.48-66.02L35.84-22.22L37.55-28.96ZM72.56-28.42L62.99-64.21L62.99-64.21Q62.70-65.33 62.26-65.67L62.26-65.67L62.26-65.67Q61.82-66.02 60.99-66.02L60.99-66.02L58.74-66.02L70.70-21.14L72.56-28.42ZM132.47-73.19L132.47-49.07L132.47-49.07Q133.54-49.90 135.06-50.44L135.06-50.44L135.06-50.44Q136.57-50.98 138.38-50.98L138.38-50.98L138.38-50.98Q143.07-50.98 145.68-47.75L145.68-47.75L145.68-47.75Q148.29-44.53 148.29-38.28L148.29-38.28L148.29-2.29L148.29-2.29Q148.29-1.46 148.07-1.00L148.07-1.00L148.07-1.00Q147.85-0.54 147.53-0.32L147.53-0.32L147.53-0.32Q147.22-0.10 146.78-0.05L146.78-0.05L146.78-0.05Q146.34 0 145.90 0L145.90 0L142.77 0L142.77 0Q141.50 0 141.14-0.73L141.14-0.73L141.14-0.73Q140.77-1.46 140.77-2.29L140.77-2.29L140.77-38.77L140.77-38.77Q140.77-41.55 139.77-43.02L139.77-43.02L139.77-43.02Q138.77-44.48 136.57-44.48L136.57-44.48L136.57-44.48Q135.45-44.48 134.30-43.87L134.30-43.87L134.30-43.87Q133.15-43.26 132.47-42.58L132.47-42.58L132.47-6.84L132.47-6.84Q132.47-5.13 132.28-3.86L132.28-3.86L132.28-3.86Q132.08-2.59 131.35-1.73L131.35-1.73L131.35-1.73Q130.62-0.88 129.25-0.44L129.25-0.44L129.25-0.44Q127.88 0 125.54 0L125.54 0L102.93 0L102.93 0Q101.03 0 99.78-0.44L99.78-0.44L99.78-0.44Q98.54-0.88 97.80-1.71L97.80-1.71L97.80-1.71Q97.07-2.54 96.78-3.81L96.78-3.81L96.78-3.81Q96.48-5.08 96.48-6.79L96.48-6.79L96.48-73.19L96.48-73.19Q96.48-74.85 96.78-76.15L96.78-76.15L96.78-76.15Q97.07-77.44 97.90-78.27L97.90-78.27L97.90-78.27Q98.73-79.10 100.20-79.54L100.20-79.54L100.20-79.54Q101.66-79.98 104.00-79.98L104.00-79.98L125.39-79.98L125.39-79.98Q127.59-79.98 128.98-79.59L128.98-79.59L128.98-79.59Q130.37-79.20 131.15-78.34L131.15-78.34L131.15-78.34Q131.93-77.49 132.20-76.22L132.20-76.22L132.20-76.22Q132.47-74.95 132.47-73.19L132.47-73.19ZM128.32-7.23L128.32-72.75L128.32-72.75Q128.32-73.83 128.17-74.46L128.17-74.46L128.17-74.46Q128.03-75.10 127.59-75.42L127.59-75.42L127.59-75.42Q127.15-75.73 126.42-75.81L126.42-75.81L126.42-75.81Q125.68-75.88 124.51-75.88L124.51-75.88L124.51-4.10L124.51-4.10Q125.68-4.10 126.42-4.17L126.42-4.17L126.42-4.17Q127.15-4.25 127.59-4.57L127.59-4.57L127.59-4.57Q128.03-4.88 128.17-5.49L128.17-5.49L128.17-5.49Q128.32-6.10 128.32-7.23L128.32-7.23ZM185.50 1.71L185.50 1.71L185.50 1.71Q181.84 1.71 178.17 1.12L178.17 1.12L178.17 1.12Q174.51 0.54 171.17-0.73L171.17-0.73L171.17-0.73Q167.82-2.00 164.94-4.05L164.94-4.05L164.94-4.05Q162.06-6.10 159.94-9.08L159.94-9.08L159.94-9.08Q157.81-12.06 156.59-15.99L156.59-15.99L156.59-15.99Q155.37-19.92 155.37-25L155.37-25L155.37-25Q155.37-29.98 156.59-33.91L156.59-33.91L156.59-33.91Q157.81-37.84 159.94-40.82L159.94-40.82L159.94-40.82Q162.06-43.80 164.94-45.87L164.94-45.87L164.94-45.87Q167.82-47.95 171.17-49.24L171.17-49.24L171.17-49.24Q174.51-50.54 178.17-51.12L178.17-51.12L178.17-51.12Q181.84-51.71 185.50-51.71L185.50-51.71L185.50-51.71Q188.87-51.71 192.41-51.29L192.41-51.29L192.41-51.29Q195.95-50.88 199.29-49.78L199.29-49.78L199.29-49.78Q202.64-48.68 205.59-46.80L205.59-46.80L205.59-46.80Q208.54-44.92 210.77-41.99L210.77-41.99L210.77-41.99Q212.99-39.06 214.28-34.99L214.28-34.99L214.28-34.99Q215.58-30.91 215.58-25.39L215.58-25.39L215.58-25.39Q215.58-19.73 214.31-15.50L214.31-15.50L214.31-15.50Q213.04-11.28 210.82-8.28L210.82-8.28L210.82-8.28Q208.59-5.27 205.66-3.32L205.66-3.32L205.66-3.32Q202.73-1.37 199.39-0.27L199.39-0.27L199.39-0.27Q196.04 0.83 192.48 1.27L192.48 1.27L192.48 1.27Q188.92 1.71 185.50 1.71ZM200.49-10.01L200.49-10.01L200.49-10.01Q202.00-10.01 203.49-10.67L203.49-10.67L203.49-10.67Q204.98-11.33 206.13-13.04L206.13-13.04L206.13-13.04Q207.28-14.75 207.98-17.75L207.98-17.75L207.98-17.75Q208.69-20.75 208.69-25.39L208.69-25.39L208.69-25.39Q208.69-29.79 207.98-32.62L207.98-32.62L207.98-32.62Q207.28-35.45 206.10-37.08L206.10-37.08L206.10-37.08Q204.93-38.72 203.47-39.36L203.47-39.36L203.47-39.36Q202.00-39.99 200.49-39.99L200.49-39.99L200.49-39.99Q199.32-39.99 197.88-39.50L197.88-39.50L197.88-39.50Q196.44-39.01 195.19-37.43L195.19-37.43L195.19-37.43Q193.95-35.84 193.12-32.89L193.12-32.89L193.12-32.89Q192.29-29.93 192.29-25L192.29-25L192.29-25Q192.29-20.07 192.97-17.09L192.97-17.09L192.97-17.09Q193.65-14.11 194.78-12.55L194.78-12.55L194.78-12.55Q195.90-10.99 197.39-10.50L197.39-10.50L197.39-10.50Q198.88-10.01 200.49-10.01ZM196.83-8.06L196.83-8.06L196.83-8.06Q195.21-8.35 193.65-9.18L193.65-9.18L193.65-9.18Q192.09-10.01 190.87-11.89L190.87-11.89L190.87-11.89Q189.65-13.77 188.89-16.92L188.89-16.92L188.89-16.92Q188.13-20.07 188.13-25L188.13-25L188.13-25Q188.13-28.27 188.55-30.76L188.55-30.76L188.55-30.76Q188.96-33.25 189.67-35.06L189.67-35.06L189.67-35.06Q190.38-36.87 191.31-38.09L191.31-38.09L191.31-38.09Q192.24-39.31 193.19-40.11L193.19-40.11L193.19-40.11Q194.14-40.92 195.09-41.33L195.09-41.33L195.09-41.33Q196.04-41.75 196.83-41.94L196.83-41.94L196.83-41.94Q195.12-41.94 192.92-41.19L192.92-41.19L192.92-41.19Q190.72-40.43 188.77-38.53L188.77-38.53L188.77-38.53Q186.82-36.62 185.47-33.33L185.47-33.33L185.47-33.33Q184.13-30.03 184.13-25L184.13-25L184.13-25Q184.13-19.92 185.30-16.65L185.30-16.65L185.30-16.65Q186.47-13.38 188.31-11.47L188.31-11.47L188.31-11.47Q190.14-9.57 192.41-8.81L192.41-8.81L192.41-8.81Q194.68-8.06 196.83-8.06ZM250.88 1.71L250.88 1.71L250.88 1.71Q247.22 1.71 243.55 1.12L243.55 1.12L243.55 1.12Q239.89 0.54 236.55-0.73L236.55-0.73L236.55-0.73Q233.20-2.00 230.32-4.05L230.32-4.05L230.32-4.05Q227.44-6.10 225.32-9.08L225.32-9.08L225.32-9.08Q223.19-12.06 221.97-15.99L221.97-15.99L221.97-15.99Q220.75-19.92 220.75-25L220.75-25L220.75-25Q220.75-29.98 221.97-33.91L221.97-33.91L221.97-33.91Q223.19-37.84 225.32-40.82L225.32-40.82L225.32-40.82Q227.44-43.80 230.32-45.87L230.32-45.87L230.32-45.87Q233.20-47.95 236.55-49.24L236.55-49.24L236.55-49.24Q239.89-50.54 243.55-51.12L243.55-51.12L243.55-51.12Q247.22-51.71 250.88-51.71L250.88-51.71L250.88-51.71Q254.25-51.71 257.79-51.29L257.79-51.29L257.79-51.29Q261.33-50.88 264.67-49.78L264.67-49.78L264.67-49.78Q268.02-48.68 270.97-46.80L270.97-46.80L270.97-46.80Q273.93-44.92 276.15-41.99L276.15-41.99L276.15-41.99Q278.37-39.06 279.66-34.99L279.66-34.99L279.66-34.99Q280.96-30.91 280.96-25.39L280.96-25.39L280.96-25.39Q280.96-19.73 279.69-15.50L279.69-15.50L279.69-15.50Q278.42-11.28 276.20-8.28L276.20-8.28L276.20-8.28Q273.97-5.27 271.04-3.32L271.04-3.32L271.04-3.32Q268.12-1.37 264.77-0.27L264.77-0.27L264.77-0.27Q261.43 0.83 257.86 1.27L257.86 1.27L257.86 1.27Q254.30 1.71 250.88 1.71ZM265.87-10.01L265.87-10.01L265.87-10.01Q267.38-10.01 268.87-10.67L268.87-10.67L268.87-10.67Q270.36-11.33 271.51-13.04L271.51-13.04L271.51-13.04Q272.66-14.75 273.36-17.75L273.36-17.75L273.36-17.75Q274.07-20.75 274.07-25.39L274.07-25.39L274.07-25.39Q274.07-29.79 273.36-32.62L273.36-32.62L273.36-32.62Q272.66-35.45 271.48-37.08L271.48-37.08L271.48-37.08Q270.31-38.72 268.85-39.36L268.85-39.36L268.85-39.36Q267.38-39.99 265.87-39.99L265.87-39.99L265.87-39.99Q264.70-39.99 263.26-39.50L263.26-39.50L263.26-39.50Q261.82-39.01 260.57-37.43L260.57-37.43L260.57-37.43Q259.33-35.84 258.50-32.89L258.50-32.89L258.50-32.89Q257.67-29.93 257.67-25L257.67-25L257.67-25Q257.67-20.07 258.35-17.09L258.35-17.09L258.35-17.09Q259.03-14.11 260.16-12.55L260.16-12.55L260.16-12.55Q261.28-10.99 262.77-10.50L262.77-10.50L262.77-10.50Q264.26-10.01 265.87-10.01ZM262.21-8.06L262.21-8.06L262.21-8.06Q260.60-8.35 259.03-9.18L259.03-9.18L259.03-9.18Q257.47-10.01 256.25-11.89L256.25-11.89L256.25-11.89Q255.03-13.77 254.27-16.92L254.27-16.92L254.27-16.92Q253.52-20.07 253.52-25L253.52-25L253.52-25Q253.52-28.27 253.93-30.76L253.93-30.76L253.93-30.76Q254.35-33.25 255.05-35.06L255.05-35.06L255.05-35.06Q255.76-36.87 256.69-38.09L256.69-38.09L256.69-38.09Q257.62-39.31 258.57-40.11L258.57-40.11L258.57-40.11Q259.52-40.92 260.47-41.33L260.47-41.33L260.47-41.33Q261.43-41.75 262.21-41.94L262.21-41.94L262.21-41.94Q260.50-41.94 258.30-41.19L258.30-41.19L258.30-41.19Q256.10-40.43 254.15-38.53L254.15-38.53L254.15-38.53Q252.20-36.62 250.85-33.33L250.85-33.33L250.85-33.33Q249.51-30.03 249.51-25L249.51-25L249.51-25Q249.51-19.92 250.68-16.65L250.68-16.65L250.68-16.65Q251.86-13.38 253.69-11.47L253.69-11.47L253.69-11.47Q255.52-9.57 257.79-8.81L257.79-8.81L257.79-8.81Q260.06-8.06 262.21-8.06ZM316.06-51.12L316.06-51.12L316.06-51.12Q319.68-51.12 323.24-50.59L323.24-50.59L323.24-50.59Q326.81-50.05 330.08-48.83L330.08-48.83L330.08-48.83Q333.35-47.61 336.13-45.65L336.13-45.65L336.13-45.65Q338.92-43.70 340.97-40.82L340.97-40.82L340.97-40.82Q343.02-37.94 344.19-34.11L344.19-34.11L344.19-34.11Q345.36-30.27 345.36-25.29L345.36-25.29L345.36-25.29Q345.36-19.14 343.60-14.67L343.60-14.67L343.60-14.67Q341.85-10.21 338.92-7.18L338.92-7.18L338.92-7.18Q335.99-4.15 332.13-2.42L332.13-2.42L332.13-2.42Q328.27-0.68 324.02 0L324.02 0L324.02 13.28L324.02 13.28Q324.02 15.04 323.73 16.31L323.73 16.31L323.73 16.31Q323.44 17.58 322.68 18.43L322.68 18.43L322.68 18.43Q321.92 19.29 320.53 19.70L320.53 19.70L320.53 19.70Q319.14 20.12 316.94 20.12L316.94 20.12L295.56 20.12L295.56 20.12Q293.21 20.12 291.75 19.68L291.75 19.68L291.75 19.68Q290.28 19.24 289.45 18.38L289.45 18.38L289.45 18.38Q288.62 17.53 288.33 16.26L288.33 16.26L288.33 16.26Q288.04 14.99 288.04 13.28L288.04 13.28L288.04-25.78L288.04-25.78Q288.04-31.84 289.92-36.57L289.92-36.57L289.92-36.57Q291.80-41.31 295.39-44.53L295.39-44.53L295.39-44.53Q298.97-47.75 304.17-49.44L304.17-49.44L304.17-49.44Q309.38-51.12 316.06-51.12ZM338.43-25.34L338.43-25.34L338.43-25.34Q338.43-29.10 337.60-32.32L337.60-32.32L337.60-32.32Q336.77-35.55 335.01-38.04L335.01-38.04L335.01-38.04Q333.25-40.53 330.54-42.11L330.54-42.11L330.54-42.11Q327.83-43.70 324.02-44.14L324.02-44.14L324.02-6.25L324.02-6.25Q327.83-6.74 330.54-8.35L330.54-8.35L330.54-8.35Q333.25-9.96 335.01-12.50L335.01-12.50L335.01-12.50Q336.77-15.04 337.60-18.31L337.60-18.31L337.60-18.31Q338.43-21.58 338.43-25.34ZM319.87 12.89L319.92-44.68L319.92-44.68Q319.53-44.73 318.99-44.78L318.99-44.78L318.99-44.78Q318.46-44.82 317.90-44.87L317.90-44.87L317.90-44.87Q317.33-44.92 316.85-44.92L316.85-44.92L316.85-44.92Q316.36-44.92 316.11-44.92L316.11-44.92L316.06 16.02L316.06 16.02Q317.24 16.02 317.97 15.94L317.97 15.94L317.97 15.94Q318.70 15.87 319.14 15.55L319.14 15.55L319.14 15.55Q319.58 15.23 319.73 14.62L319.73 14.62L319.73 14.62Q319.87 14.01 319.87 12.89L319.87 12.89ZM387.26-51.71L387.26-51.71L387.26-51.71Q390.38-51.71 393.51-51.34L393.51-51.34L393.51-51.34Q396.63-50.98 399.44-50.39L399.44-50.39L399.44-50.39Q402.25-49.80 404.57-49.10L404.57-49.10L404.57-49.10Q406.88-48.39 408.35-47.71L408.35-47.71L408.35-47.71Q408.59-47.61 408.86-47.41L408.86-47.41L408.86-47.41Q409.13-47.22 409.13-46.68L409.13-46.68L409.13-46.68Q409.13-46.53 409.08-46.29L409.08-46.29L409.08-46.29Q409.03-46.04 408.98-45.80L408.98-45.80L408.40-42.92L408.40-42.92Q408.30-42.33 408.13-42.21L408.13-42.21L408.13-42.21Q407.96-42.09 407.81-42.09L407.81-42.09L407.81-42.09Q407.57-42.09 406.88-42.24L406.88-42.24L406.88-42.24Q406.20-42.38 405.42-42.38L405.42-42.38L405.42-42.38Q402.64-42.38 401.03-40.89L401.03-40.89L401.03-40.89Q399.41-39.40 398.97-35.69L398.97-35.69L396.24-12.89L396.24-12.89Q395.85-9.86 394.21-7.23L394.21-7.23L394.21-7.23Q392.58-4.59 389.50-2.59L389.50-2.59L389.50-2.59Q386.43-0.59 381.91 0.56L381.91 0.56L381.91 0.56Q377.39 1.71 371.34 1.71L371.34 1.71L371.34 1.71Q367.53 1.71 363.92 1.25L363.92 1.25L363.92 1.25Q360.30 0.78 357.25 0.12L357.25 0.12L357.25 0.12Q354.20-0.54 351.93-1.20L351.93-1.20L351.93-1.20Q349.66-1.86 348.54-2.25L348.54-2.25L348.54-2.25Q348.14-2.34 347.92-2.51L347.92-2.51L347.92-2.51Q347.71-2.69 347.71-3.08L347.71-3.08L347.71-3.08Q347.71-3.27 347.75-3.52L347.75-3.52L347.75-3.52Q347.80-3.76 347.90-4.10L347.90-4.10L348.49-6.84L348.49-6.84Q348.58-7.23 348.83-7.47L348.83-7.47L348.83-7.47Q349.07-7.71 349.71-7.71L349.71-7.71L349.71-7.71Q351.32-7.71 352.95-7.89L352.95-7.89L352.95-7.89Q354.59-8.06 355.98-8.79L355.98-8.79L355.98-8.79Q357.37-9.52 358.42-11.04L358.42-11.04L358.42-11.04Q359.47-12.55 359.86-15.28L359.86-15.28L363.28-38.82L363.28-38.82Q363.82-42.53 366.02-45.02L366.02-45.02L366.02-45.02Q368.21-47.51 371.46-49.00L371.46-49.00L371.46-49.00Q374.71-50.49 378.81-51.10L378.81-51.10L378.81-51.10Q382.91-51.71 387.26-51.71ZM377.98-2.83L377.98-2.83L377.98-2.83Q384.72-3.61 388.21-6.62L388.21-6.62L388.21-6.62Q391.70-9.62 392.24-14.11L392.24-14.11L394.82-35.69L394.82-35.69Q395.26-39.40 397.00-41.85L397.00-41.85L397.00-41.85Q398.73-44.29 401.76-44.82L401.76-44.82L401.76-44.82Q399.02-44.82 397.09-44.09L397.09-44.09L397.09-44.09Q395.17-43.36 393.85-42.11L393.85-42.11L393.85-42.11Q392.53-40.87 391.82-39.21L391.82-39.21L391.82-39.21Q391.11-37.55 390.92-35.69L390.92-35.69L388.33-14.11L388.33-14.11Q388.09-12.21 387.33-10.45L387.33-10.45L387.33-10.45Q386.57-8.69 385.30-7.20L385.30-7.20L385.30-7.20Q384.03-5.71 382.20-4.57L382.20-4.57L382.20-4.57Q380.37-3.42 377.98-2.83ZM413.38-6.79L413.38-43.21L413.38-43.21Q413.38-44.87 413.67-46.17L413.67-46.17L413.67-46.17Q413.96-47.46 414.79-48.29L414.79-48.29L414.79-48.29Q415.63-49.12 417.09-49.56L417.09-49.56L417.09-49.56Q418.55-50 420.90-50L420.90-50L442.29-50L442.29-50Q444.53-50 445.92-49.58L445.92-49.58L445.92-49.58Q447.31-49.17 448.10-48.34L448.10-48.34L448.10-48.34Q448.88-47.51 449.12-46.24L449.12-46.24L449.12-46.24Q449.37-44.97 449.37-43.21L449.37-43.21L449.37-6.69L449.37-6.69Q449.37-5.03 449.12-3.78L449.12-3.78L449.12-3.78Q448.88-2.54 448.10-1.68L448.10-1.68L448.10-1.68Q447.31-0.83 445.92-0.42L445.92-0.42L445.92-0.42Q444.53 0 442.29 0L442.29 0L420.90 0L420.90 0Q418.55 0 417.09-0.44L417.09-0.44L417.09-0.44Q415.63-0.88 414.79-1.71L414.79-1.71L414.79-1.71Q413.96-2.54 413.67-3.81L413.67-3.81L413.67-3.81Q413.38-5.08 413.38-6.79L413.38-6.79ZM415.19-70.90L415.19-70.90L415.19-70.90Q415.19-74.27 416.48-77.25L416.48-77.25L416.48-77.25Q417.77-80.22 419.97-82.42L419.97-82.42L419.97-82.42Q422.17-84.62 425.15-85.91L425.15-85.91L425.15-85.91Q428.13-87.21 431.49-87.21L431.49-87.21L431.49-87.21Q434.81-87.21 437.77-85.91L437.77-85.91L437.77-85.91Q440.72-84.62 442.92-82.42L442.92-82.42L442.92-82.42Q445.12-80.22 446.41-77.25L446.41-77.25L446.41-77.25Q447.71-74.27 447.71-70.90L447.71-70.90L447.71-70.90Q447.71-67.58 446.41-64.62L446.41-64.62L446.41-64.62Q445.12-61.67 442.92-59.47L442.92-59.47L442.92-59.47Q440.72-57.28 437.77-55.98L437.77-55.98L437.77-55.98Q434.81-54.69 431.49-54.69L431.49-54.69L431.49-54.69Q428.13-54.69 425.15-55.98L425.15-55.98L425.15-55.98Q422.17-57.28 419.97-59.47L419.97-59.47L419.97-59.47Q417.77-61.67 416.48-64.62L416.48-64.62L416.48-64.62Q415.19-67.58 415.19-70.90ZM445.21-7.23L445.21-42.77L445.21-42.77Q445.21-43.85 445.07-44.48L445.07-44.48L445.07-44.48Q444.92-45.12 444.48-45.43L444.48-45.43L444.48-45.43Q444.04-45.75 443.31-45.83L443.31-45.83L443.31-45.83Q442.58-45.90 441.41-45.90L441.41-45.90L441.41-4.10L441.41-4.10Q442.58-4.10 443.31-4.17L443.31-4.17L443.31-4.17Q444.04-4.25 444.48-4.57L444.48-4.57L444.48-4.57Q444.92-4.88 445.07-5.49L445.07-5.49L445.07-5.49Q445.21-6.10 445.21-7.23L445.21-7.23ZM439.55-70.90L439.55-70.90L439.55-70.90Q439.55-67.48 438.21-64.45L438.21-64.45L438.21-64.45Q436.87-61.43 434.57-59.18L434.57-59.18L434.57-59.18Q436.52-59.67 438.16-60.79L438.16-60.79L438.16-60.79Q439.79-61.91 440.99-63.45L440.99-63.45L440.99-63.45Q442.19-64.99 442.87-66.89L442.87-66.89L442.87-66.89Q443.55-68.80 443.55-70.90L443.55-70.90L443.55-70.90Q443.55-73.00 442.87-74.90L442.87-74.90L442.87-74.90Q442.19-76.81 440.99-78.34L440.99-78.34L440.99-78.34Q439.79-79.88 438.16-80.98L438.16-80.98L438.16-80.98Q436.52-82.08 434.57-82.62L434.57-82.62L434.57-82.62Q436.87-80.37 438.21-77.34L438.21-77.34L438.21-77.34Q439.55-74.32 439.55-70.90ZM502.59-8.11L502.59-8.11L502.59-8.11Q503.91-8.11 504.98-8.47L504.98-8.47L504.98-8.47Q506.05-8.84 506.91-9.28L506.91-9.28L506.91-9.28Q507.76-9.72 508.33-10.08L508.33-10.08L508.33-10.08Q508.89-10.45 509.18-10.45L509.18-10.45L509.18-10.45Q509.62-10.45 509.79-10.30L509.79-10.30L509.79-10.30Q509.96-10.16 510.21-9.77L510.21-9.77L511.91-7.13L511.91-7.13Q512.16-6.74 512.16-6.45L512.16-6.45L512.16-6.45Q512.16-6.10 511.96-5.91L511.96-5.91L511.96-5.91Q511.77-5.71 511.57-5.57L511.57-5.57L511.57-5.57Q509.96-4.44 507.62-3.15L507.62-3.15L507.62-3.15Q505.27-1.86 502.17-0.78L502.17-0.78L502.17-0.78Q499.07 0.29 495.17 1.00L495.17 1.00L495.17 1.00Q491.26 1.71 486.57 1.71L486.57 1.71L486.57 1.71Q482.91 1.71 479.25 1.12L479.25 1.12L479.25 1.12Q475.59 0.54 472.24-0.73L472.24-0.73L472.24-0.73Q468.90-2.00 466.02-4.05L466.02-4.05L466.02-4.05Q463.13-6.10 461.01-9.08L461.01-9.08L461.01-9.08Q458.89-12.06 457.67-15.99L457.67-15.99L457.67-15.99Q456.45-19.92 456.45-25L456.45-25L456.45-25Q456.45-29.98 457.67-33.91L457.67-33.91L457.67-33.91Q458.89-37.84 461.01-40.82L461.01-40.82L461.01-40.82Q463.13-43.80 466.02-45.87L466.02-45.87L466.02-45.87Q468.90-47.95 472.24-49.24L472.24-49.24L472.24-49.24Q475.59-50.54 479.25-51.12L479.25-51.12L479.25-51.12Q482.91-51.71 486.57-51.71L486.57-51.71L486.57-51.71Q492.68-51.71 497.92-50.34L497.92-50.34L497.92-50.34Q503.17-48.97 507.03-45.85L507.03-45.85L507.03-45.85Q510.89-42.72 513.09-37.65L513.09-37.65L513.09-37.65Q515.28-32.57 515.28-25.20L515.28-25.20L515.28-22.46L515.28-22.46Q515.28-21.58 514.84-21.09L514.84-21.09L514.84-21.09Q514.40-20.61 513.38-20.61L513.38-20.61L493.16-20.61L493.16-20.61Q493.55-16.99 494.56-14.58L494.56-14.58L494.56-14.58Q495.56-12.16 496.85-10.72L496.85-10.72L496.85-10.72Q498.14-9.28 499.66-8.69L499.66-8.69L499.66-8.69Q501.17-8.11 502.59-8.11ZM492.97-26.61L508.35-26.61L508.35-26.61Q508.35-30.52 507.74-33.08L507.74-33.08L507.74-33.08Q507.13-35.64 506.10-37.18L506.10-37.18L506.10-37.18Q505.08-38.72 503.69-39.36L503.69-39.36L503.69-39.36Q502.29-39.99 500.78-39.99L500.78-39.99L500.78-39.99Q499.66-39.99 498.34-39.55L498.34-39.55L498.34-39.55Q497.02-39.11 495.87-37.70L495.87-37.70L495.87-37.70Q494.73-36.28 493.92-33.64L493.92-33.64L493.92-33.64Q493.12-31.01 492.97-26.61L492.97-26.61ZM499.37-5.37L499.37-5.37L499.37-5.37Q497.80-5.71 495.95-6.76L495.95-6.76L495.95-6.76Q494.09-7.81 492.48-10.01L492.48-10.01L492.48-10.01Q490.87-12.21 489.79-15.77L489.79-15.77L489.79-15.77Q488.72-19.34 488.72-24.71L488.72-24.71L488.72-24.71Q488.72-29.64 489.67-33.06L489.67-33.06L489.67-33.06Q490.63-36.47 492.14-38.67L492.14-38.67L492.14-38.67Q493.65-40.87 495.56-41.97L495.56-41.97L495.56-41.97Q497.46-43.07 499.37-43.36L499.37-43.36L499.37-43.36Q496.44-43.26 493.77-42.21L493.77-42.21L493.77-42.21Q491.11-41.16 489.09-38.92L489.09-38.92L489.09-38.92Q487.06-36.67 485.89-33.15L485.89-33.15L485.89-33.15Q484.72-29.64 484.72-24.71L484.72-24.71L484.72-24.71Q484.72-19.43 486.08-15.75L486.08-15.75L486.08-15.75Q487.45-12.06 489.58-9.74L489.58-9.74L489.58-9.74Q491.70-7.42 494.29-6.40L494.29-6.40L494.29-6.40Q496.88-5.37 499.37-5.37ZM541.06-25.68L539.16-25.68L539.16-25.68Q537.45-25.68 536.72-26.32L536.72-26.32L536.72-26.32Q535.99-26.95 535.79-27.91L535.79-27.91L535.79-27.91Q535.60-28.86 535.64-30.00L535.64-30.00L535.64-30.00Q535.69-31.15 535.55-32.18L535.55-32.18L535.55-32.18Q535.25-34.08 534.28-35.96L534.28-35.96L534.28-35.96Q533.30-37.84 532.01-39.67L532.01-39.67L532.01-39.67Q530.71-41.50 529.27-43.38L529.27-43.38L529.27-43.38Q527.83-45.26 526.64-47.19L526.64-47.19L526.64-47.19Q525.44-49.12 524.66-51.17L524.66-51.17L524.66-51.17Q523.88-53.22 523.88-55.42L523.88-55.42L523.88-55.42Q523.88-58.79 525.15-61.74L525.15-61.74L525.15-61.74Q526.42-64.70 528.64-66.92L528.64-66.92L528.64-66.92Q530.86-69.14 533.84-70.41L533.84-70.41L533.84-70.41Q536.82-71.68 540.19-71.68L540.19-71.68L540.19-71.68Q543.51-71.68 546.46-70.41L546.46-70.41L546.46-70.41Q549.41-69.14 551.61-66.92L551.61-66.92L551.61-66.92Q553.81-64.70 555.08-61.74L555.08-61.74L555.08-61.74Q556.35-58.79 556.35-55.42L556.35-55.42L556.35-55.42Q556.35-53.22 555.57-51.17L555.57-51.17L555.57-51.17Q554.79-49.12 553.59-47.19L553.59-47.19L553.59-47.19Q552.39-45.26 550.95-43.38L550.95-43.38L550.95-43.38Q549.51-41.50 548.22-39.67L548.22-39.67L548.22-39.67Q546.92-37.84 545.95-35.96L545.95-35.96L545.95-35.96Q544.97-34.08 544.68-32.18L544.68-32.18L544.68-32.18Q544.53-31.15 544.60-30.00L544.60-30.00L544.60-30.00Q544.68-28.86 544.46-27.91L544.46-27.91L544.46-27.91Q544.24-26.95 543.51-26.32L543.51-26.32L543.51-26.32Q542.77-25.68 541.06-25.68L541.06-25.68ZM528.91-10.30L528.91-10.30L528.91-10.30Q528.91-12.65 529.81-14.70L529.81-14.70L529.81-14.70Q530.71-16.75 532.25-18.29L532.25-18.29L532.25-18.29Q533.79-19.82 535.84-20.70L535.84-20.70L535.84-20.70Q537.89-21.58 540.23-21.58L540.23-21.58L540.23-21.58Q542.58-21.58 544.63-20.70L544.63-20.70L544.63-20.70Q546.68-19.82 548.22-18.29L548.22-18.29L548.22-18.29Q549.76-16.75 550.63-14.70L550.63-14.70L550.63-14.70Q551.51-12.65 551.51-10.30L551.51-10.30L551.51-10.30Q551.51-7.96 550.63-5.91L550.63-5.91L550.63-5.91Q549.76-3.86 548.22-2.32L548.22-2.32L548.22-2.32Q546.68-0.78 544.63 0.10L544.63 0.10L544.63 0.10Q542.58 0.98 540.23 0.98L540.23 0.98L540.23 0.98Q537.89 0.98 535.84 0.10L535.84 0.10L535.84 0.10Q533.79-0.78 532.25-2.32L532.25-2.32L532.25-2.32Q530.71-3.86 529.81-5.91L529.81-5.91L529.81-5.91Q528.91-7.96 528.91-10.30ZM541.06-17.43L541.06-17.43L541.06-17.43Q542.24-15.97 542.92-14.16L542.92-14.16L542.92-14.16Q543.60-12.35 543.60-10.30L543.60-10.30L543.60-10.30Q543.60-8.30 542.92-6.47L542.92-6.47L542.92-6.47Q542.24-4.64 541.06-3.17L541.06-3.17L541.06-3.17Q542.38-3.32 543.55-3.93L543.55-3.93L543.55-3.93Q544.73-4.54 545.56-5.49L545.56-5.49L545.56-5.49Q546.39-6.45 546.88-7.69L546.88-7.69L546.88-7.69Q547.36-8.94 547.36-10.30L547.36-10.30L547.36-10.30Q547.36-11.67 546.88-12.92L546.88-12.92L546.88-12.92Q546.39-14.16 545.56-15.11L545.56-15.11L545.56-15.11Q544.73-16.06 543.55-16.67L543.55-16.67L543.55-16.67Q542.38-17.29 541.06-17.43ZM542.33-68.16L542.33-68.16L542.33-68.16Q545.02-65.92 546.61-62.57L546.61-62.57L546.61-62.57Q548.19-59.23 548.19-55.42L548.19-55.42L548.19-55.42Q548.19-53.22 547.71-51.44L547.71-51.44L547.71-51.44Q547.22-49.66 546.48-48.07L546.48-48.07L546.48-48.07Q545.75-46.48 544.90-44.97L544.90-44.97L544.90-44.97Q544.04-43.46 543.26-41.77L543.26-41.77L543.26-41.77Q542.48-40.09 541.89-38.11L541.89-38.11L541.89-38.11Q541.31-36.13 541.16-33.64L541.16-33.64L541.16-33.64Q541.50-35.74 542.46-37.57L542.46-37.57L542.46-37.57Q543.41-39.40 544.65-41.14L544.65-41.14L544.65-41.14Q545.90-42.87 547.22-44.53L547.22-44.53L547.22-44.53Q548.54-46.19 549.66-47.92L549.66-47.92L549.66-47.92Q550.78-49.66 551.49-51.49L551.49-51.49L551.49-51.49Q552.20-53.32 552.20-55.42L552.20-55.42L552.20-55.42Q552.20-57.81 551.46-59.89L551.46-59.89L551.46-59.89Q550.73-61.96 549.41-63.60L549.41-63.60L549.41-63.60Q548.10-65.23 546.29-66.38L546.29-66.38L546.29-66.38Q544.48-67.53 542.33-68.16Z" fill="#f7c61d"></path></g></g><style>text {
  font-size: 64px;
  font-family: Arial Black;
  dominant-baseline: central;
  text-anchor: middle;
}</style></svg>