<svg width="1032.86005859375px" height="71.021240234375px" xmlns="http://www.w3.org/2000/svg" viewBox="-266.430029296875 39.4893798828125 1032.86005859375 71.021240234375" style="background: rgba(0, 0, 0, 0);" preserveAspectRatio="xMidYMid"><defs><filter id="editing-metal-beveled"><feGaussianBlur stdDeviation="4" in="SourceAlpha" result="blur"></feGaussianBlur><feSpecularLighting surfaceScale="5" specularConstant="0.8" specularExponent="7.5" lighting-color="#fff" in="blur" result="specular"><fePointLight x="-250" y="-50" z="300"></fePointLight></feSpecularLighting><feComposite operator="in" in="specular" in2="SourceAlpha" result="comp"></feComposite><feComposite in="SourceGraphic" in2="comp" operator="arithmetic" k1="0" k2="1" k3="1" k4="0"></feComposite></filter></defs><g filter="url(#editing-metal-beveled)"><g transform="translate(-123.42500615119934, 88.87031173706055)"><path d="M2.70 0L2.70-21L8.10-21L8.10-21Q11.91-21 13.75-19.26L13.75-19.26L13.75-19.26Q15.60-17.52 15.60-14.10L15.60-14.10L15.60-14.10Q15.60-10.68 13.75-8.94L13.75-8.94L13.75-8.94Q11.91-7.20 8.10-7.20L8.10-7.20L5.70-7.20L5.70 0L2.70 0ZM5.70-9.30L8.10-9.30L8.10-9.30Q10.38-9.30 11.49-10.47L11.49-10.47L11.49-10.47Q12.60-11.64 12.60-14.10L12.60-14.10L12.60-14.10Q12.60-16.56 11.49-17.73L11.49-17.73L11.49-17.73Q10.38-18.90 8.10-18.90L8.10-18.90L5.70-18.90L5.70-9.30ZM23.25 0.30L23.25 0.30Q20.91 0.30 19.61-0.94L19.61-0.94L19.61-0.94Q18.30-2.19 18.30-4.35L18.30-4.35L18.30-4.35Q18.30-6.48 19.84-7.67L19.84-7.67L19.84-7.67Q21.39-8.85 24.75-8.85L24.75-8.85L27.15-8.85L27.15-9.60L27.15-9.60Q27.15-11.37 26.32-12.29L26.32-12.29L26.32-12.29Q25.50-13.20 24-13.20L24-13.20L24-13.20Q22.92-13.20 21.66-12.51L21.66-12.51L21.66-12.51Q21.03-12.15 20.70-11.85L20.70-11.85L20.40-11.85L19.35-13.65L19.35-13.65Q19.95-14.10 20.70-14.46L20.70-14.46L20.70-14.46Q22.32-15.30 24.30-15.30L24.30-15.30L24.30-15.30Q26.01-15.30 27.33-14.56L27.33-14.56L27.33-14.56Q28.65-13.83 29.40-12.53L29.40-12.53L29.40-12.53Q30.15-11.22 30.15-9.60L30.15-9.60L30.15 0L28.05 0L27.75-1.80L27.60-1.80L27.60-1.80Q27.18-1.20 26.55-0.75L26.55-0.75L26.55-0.75Q25.23 0.30 23.25 0.30L23.25 0.30ZM24-1.95L24-1.95Q25.11-1.95 26.25-2.85L26.25-2.85L26.25-2.85Q26.76-3.27 27.15-3.75L27.15-3.75L27.15-6.75L24.75-6.75L24.75-6.75Q23.04-6.75 22.17-6.09L22.17-6.09L22.17-6.09Q21.30-5.43 21.30-4.35L21.30-4.35L21.30-4.35Q21.30-3.18 21.97-2.56L21.97-2.56L21.97-2.56Q22.65-1.95 24-1.95L24-1.95ZM34.50 0L34.50-15L36.60-15L36.90-13.20L37.05-13.20L37.05-13.20Q37.35-13.65 38.07-14.25L38.07-14.25L38.07-14.25Q39.48-15.30 41.25-15.30L41.25-15.30L41.25-15.30Q42.03-15.30 42.63-15.15L42.63-15.15L43.20-15L42.75-12.60L42.45-12.60L42.45-12.60Q42.24-12.63 41.82-12.75L41.82-12.75L41.82-12.75Q41.16-12.90 40.50-12.90L40.50-12.90L40.50-12.90Q39.51-12.90 38.37-12L38.37-12L38.37-12Q37.98-11.67 37.50-11.10L37.50-11.10L37.50 0L34.50 0ZM50.10 0.30L50.10 0.30Q48.63 0.30 47.40-0.58L47.40-0.58L47.40-0.58Q46.17-1.47 45.44-3.23L45.44-3.23L45.44-3.23Q44.70-4.98 44.70-7.50L44.70-7.50L44.70-7.50Q44.70-11.31 46.35-13.30L46.35-13.30L46.35-13.30Q48-15.30 50.70-15.30L50.70-15.30L50.70-15.30Q51.72-15.30 53.01-14.85L53.01-14.85L54-14.40L54-20.10L54.90-21L57-21L57 0L54.90 0L54.60-1.80L54.45-1.80L54.45-1.80Q54.03-1.20 53.40-0.75L53.40-0.75L53.40-0.75Q52.08 0.30 50.10 0.30L50.10 0.30ZM50.85-1.95L50.85-1.95Q51.96-1.95 53.10-2.85L53.10-2.85L53.10-2.85Q53.61-3.27 54-3.75L54-3.75L54-12.60L54-12.60Q53.73-12.75 53.19-12.90L53.19-12.90L53.19-12.90Q52.17-13.20 51.15-13.20L51.15-13.20L51.15-13.20Q49.59-13.20 48.65-11.83L48.65-11.83L48.65-11.83Q47.70-10.47 47.70-7.50L47.70-7.50L47.70-7.50Q47.70-4.65 48.59-3.30L48.59-3.30L48.59-3.30Q49.47-1.95 50.85-1.95L50.85-1.95ZM67.20 0.30L67.20 0.30Q64.17 0.30 62.46-1.68L62.46-1.68L62.46-1.68Q60.75-3.66 60.75-7.50L60.75-7.50L60.75-7.50Q60.75-11.34 62.46-13.32L62.46-13.32L62.46-13.32Q64.17-15.30 67.20-15.30L67.20-15.30L67.20-15.30Q70.20-15.30 71.92-13.32L71.92-13.32L71.92-13.32Q73.65-11.34 73.65-7.50L73.65-7.50L73.65-7.50Q73.65-3.66 71.92-1.68L71.92-1.68L71.92-1.68Q70.20 0.30 67.20 0.30L67.20 0.30ZM67.20-1.80L67.20-1.80Q68.76-1.80 69.70-3.17L69.70-3.17L69.70-3.17Q70.65-4.53 70.65-7.50L70.65-7.50L70.65-7.50Q70.65-10.47 69.70-11.83L69.70-11.83L69.70-11.83Q68.76-13.20 67.20-13.20L67.20-13.20L67.20-13.20Q65.64-13.20 64.69-11.83L64.69-11.83L64.69-11.83Q63.75-10.47 63.75-7.50L63.75-7.50L63.75-7.50Q63.75-4.53 64.69-3.17L64.69-3.17L64.69-3.17Q65.64-1.80 67.20-1.80L67.20-1.80ZM77.40 0L77.40-15L79.50-15L79.80-13.20L79.95-13.20L79.95-13.20Q80.28-13.68 81-14.25L81-14.25L81-14.25Q82.47-15.30 84.30-15.30L84.30-15.30L84.30-15.30Q86.55-15.30 87.98-13.88L87.98-13.88L87.98-13.88Q89.40-12.45 89.40-10.20L89.40-10.20L89.40 0L86.40 0L86.40-10.20L86.40-10.20Q86.40-11.46 85.61-12.25L85.61-12.25L85.61-12.25Q84.81-13.05 83.55-13.05L83.55-13.05L83.55-13.05Q82.44-13.05 81.30-12.15L81.30-12.15L81.30-12.15Q80.82-11.73 80.40-11.25L80.40-11.25L80.40 0L77.40 0ZM108.15 0.30L108.15 0.30Q105.12 0.30 103.41-1.68L103.41-1.68L103.41-1.68Q101.70-3.66 101.70-7.50L101.70-7.50L101.70-7.50Q101.70-11.34 103.41-13.32L103.41-13.32L103.41-13.32Q105.12-15.30 108.15-15.30L108.15-15.30L108.15-15.30Q111.15-15.30 112.88-13.32L112.88-13.32L112.88-13.32Q114.60-11.34 114.60-7.50L114.60-7.50L114.60-7.50Q114.60-3.66 112.88-1.68L112.88-1.68L112.88-1.68Q111.15 0.30 108.15 0.30L108.15 0.30ZM108.15-1.80L108.15-1.80Q109.71-1.80 110.66-3.17L110.66-3.17L110.66-3.17Q111.60-4.53 111.60-7.50L111.60-7.50L111.60-7.50Q111.60-10.47 110.66-11.83L110.66-11.83L110.66-11.83Q109.71-13.20 108.15-13.20L108.15-13.20L108.15-13.20Q106.59-13.20 105.64-11.83L105.64-11.83L105.64-11.83Q104.70-10.47 104.70-7.50L104.70-7.50L104.70-7.50Q104.70-4.53 105.64-3.17L105.64-3.17L105.64-3.17Q106.59-1.80 108.15-1.80L108.15-1.80ZM123.45 0.30L123.45 0.30Q121.20 0.30 119.77-1.13L119.77-1.13L119.77-1.13Q118.35-2.55 118.35-4.80L118.35-4.80L118.35-15L121.35-15L121.35-4.80L121.35-4.80Q121.35-3.54 122.14-2.75L122.14-2.75L122.14-2.75Q122.94-1.95 124.20-1.95L124.20-1.95L124.20-1.95Q125.31-1.95 126.45-2.85L126.45-2.85L126.45-2.85Q126.93-3.24 127.35-3.75L127.35-3.75L127.35-15L130.35-15L130.35 0L128.25 0L127.95-1.80L127.80-1.80L127.80-1.80Q127.38-1.20 126.75-0.75L126.75-0.75L126.75-0.75Q125.43 0.30 123.45 0.30L123.45 0.30ZM134.85 0L134.85-15L136.95-15L137.25-13.20L137.40-13.20L137.40-13.20Q137.70-13.65 138.42-14.25L138.42-14.25L138.42-14.25Q139.83-15.30 141.60-15.30L141.60-15.30L141.60-15.30Q142.38-15.30 142.98-15.15L142.98-15.15L143.55-15L143.10-12.60L142.80-12.60L142.80-12.60Q142.59-12.63 142.17-12.75L142.17-12.75L142.17-12.75Q141.51-12.90 140.85-12.90L140.85-12.90L140.85-12.90Q139.86-12.90 138.72-12L138.72-12L138.72-12Q138.33-11.67 137.85-11.10L137.85-11.10L137.85 0L134.85 0ZM156.60 0L152.70-15L155.55-15L157.95-5.85L157.95-5.85Q158.01-5.61 158.07-5.21L158.07-5.21L158.07-5.21Q158.13-4.80 158.19-4.53L158.19-4.53L158.25-3.90L158.37-3.90L158.37-3.90Q158.37-4.11 158.43-4.53L158.43-4.53L158.43-4.53Q158.49-4.80 158.55-5.13L158.55-5.13L158.55-5.13Q158.61-5.46 158.70-5.85L158.70-5.85L161.16-15L164.16-15L166.50-5.85L166.50-5.85Q166.56-5.61 166.62-5.21L166.62-5.21L166.62-5.21Q166.68-4.80 166.74-4.53L166.74-4.53L166.83-3.90L166.95-3.90L166.95-3.90Q166.95-4.11 167.01-4.53L167.01-4.53L167.01-4.53Q167.16-5.46 167.25-5.85L167.25-5.85L169.65-15L172.50-15L168.60 0L165.60 0L163.05-9.45L163.05-9.45Q162.90-9.93 162.78-10.77L162.78-10.77L162.66-11.55L162.54-11.55L162.42-10.77L162.42-10.77Q162.36-10.26 162.15-9.45L162.15-9.45L159.60 0L156.60 0ZM181.65 0.30L181.65 0.30Q178.53 0.30 176.79-1.68L176.79-1.68L176.79-1.68Q175.05-3.66 175.05-7.50L175.05-7.50L175.05-7.50Q175.05-11.31 176.73-13.30L176.73-13.30L176.73-13.30Q178.41-15.30 181.20-15.30L181.20-15.30L181.20-15.30Q183.99-15.30 185.67-13.30L185.67-13.30L185.67-13.30Q187.35-11.31 187.35-7.50L187.35-7.50L187.35-7.05L186.75-6.45L178.05-6.45L178.05-6.45Q178.05-4.14 179.07-2.97L179.07-2.97L179.07-2.97Q180.09-1.80 181.95-1.80L181.95-1.80L181.95-1.80Q183.06-1.80 184.26-2.46L184.26-2.46L184.26-2.46Q184.89-2.82 185.25-3.15L185.25-3.15L185.55-3.15L186.60-1.35L186.60-1.35Q186.06-0.90 185.25-0.51L185.25-0.51L185.25-0.51Q183.69 0.30 181.65 0.30L181.65 0.30ZM178.05-8.55L184.35-8.55L184.35-8.55Q184.35-10.92 183.49-12.06L183.49-12.06L183.49-12.06Q182.64-13.20 181.20-13.20L181.20-13.20L181.20-13.20Q179.76-13.20 178.90-12.06L178.90-12.06L178.90-12.06Q178.05-10.92 178.05-8.55L178.05-8.55ZM197.85 0.30L197.85 0.30Q195.87 0.30 194.55-0.75L194.55-0.75L194.55-0.75Q193.92-1.20 193.50-1.80L193.50-1.80L193.35-1.80L193.05 0L190.95 0L190.95-20.10L191.85-21L193.95-21L193.95-14.40L193.95-14.40Q194.31-14.61 194.91-14.85L194.91-14.85L194.91-14.85Q196.20-15.30 197.25-15.30L197.25-15.30L197.25-15.30Q199.95-15.30 201.60-13.30L201.60-13.30L201.60-13.30Q203.25-11.31 203.25-7.50L203.25-7.50L203.25-7.50Q203.25-4.98 202.51-3.23L202.51-3.23L202.51-3.23Q201.78-1.47 200.55-0.58L200.55-0.58L200.55-0.58Q199.32 0.30 197.85 0.30L197.85 0.30ZM197.10-1.95L197.10-1.95Q198.48-1.95 199.36-3.30L199.36-3.30L199.36-3.30Q200.25-4.65 200.25-7.50L200.25-7.50L200.25-7.50Q200.25-10.47 199.30-11.83L199.30-11.83L199.30-11.83Q198.36-13.20 196.80-13.20L196.80-13.20L196.80-13.20Q195.78-13.20 194.76-12.90L194.76-12.90L194.76-12.90Q194.22-12.75 193.95-12.60L193.95-12.60L193.95-3.75L193.95-3.75Q194.37-3.24 194.85-2.85L194.85-2.85L194.85-2.85Q195.99-1.95 197.10-1.95L197.10-1.95ZM211.35 0.30L211.35 0.30Q208.89 0.30 207.21-0.51L207.21-0.51L207.21-0.51Q206.34-0.90 205.80-1.35L205.80-1.35L206.85-3.15L207.15-3.15L207.15-3.15Q207.48-2.85 208.20-2.46L208.20-2.46L208.20-2.46Q209.58-1.80 211.05-1.80L211.05-1.80L211.05-1.80Q212.85-1.80 213.68-2.37L213.68-2.37L213.68-2.37Q214.50-2.94 214.50-3.90L214.50-3.90L214.50-3.90Q214.50-4.89 213.65-5.40L213.65-5.40L213.65-5.40Q212.79-5.91 210.99-6.51L210.99-6.51L210.99-6.51Q209.40-7.05 208.44-7.50L208.44-7.50L208.44-7.50Q207.48-7.95 206.79-8.79L206.79-8.79L206.79-8.79Q206.10-9.63 206.10-10.95L206.10-10.95L206.10-10.95Q206.10-12.96 207.53-14.13L207.53-14.13L207.53-14.13Q208.95-15.30 211.80-15.30L211.80-15.30L211.80-15.30Q213.93-15.30 215.67-14.46L215.67-14.46L215.67-14.46Q216.51-14.07 217.05-13.65L217.05-13.65L216-11.85L215.70-11.85L215.70-11.85Q215.25-12.18 214.68-12.51L214.68-12.51L214.68-12.51Q213.36-13.20 212.10-13.20L212.10-13.20L212.10-13.20Q210.60-13.20 209.85-12.64L209.85-12.64L209.85-12.64Q209.10-12.09 209.10-11.25L209.10-11.25L209.10-11.25Q209.10-10.26 209.96-9.75L209.96-9.75L209.96-9.75Q210.81-9.24 212.61-8.64L212.61-8.64L212.61-8.64Q214.20-8.10 215.16-7.65L215.16-7.65L215.16-7.65Q216.12-7.20 216.81-6.36L216.81-6.36L216.81-6.36Q217.50-5.52 217.50-4.20L217.50-4.20L217.50-4.20Q217.50-2.07 216-0.89L216-0.89L216-0.89Q214.50 0.30 211.35 0.30L211.35 0.30ZM222.30-17.40L222.30-17.40Q221.52-17.40 221.01-17.91L221.01-17.91L221.01-17.91Q220.50-18.42 220.50-19.20L220.50-19.20L220.50-19.20Q220.50-19.98 221.01-20.49L221.01-20.49L221.01-20.49Q221.52-21 222.30-21L222.30-21L222.30-21Q223.08-21 223.59-20.49L223.59-20.49L223.59-20.49Q224.10-19.98 224.10-19.20L224.10-19.20L224.10-19.20Q224.10-18.42 223.59-17.91L223.59-17.91L223.59-17.91Q223.08-17.40 222.30-17.40L222.30-17.40ZM223.80 0L220.80 0L220.80-15L223.80-15L223.80 0ZM233.85 0.30L233.85 0.30Q231.60 0.30 230.25-1.02L230.25-1.02L230.25-1.02Q228.90-2.34 228.90-4.50L228.90-4.50L228.90-12.90L226.65-12.90L226.65-14.70L230.55-18.60L231.90-18.60L231.90-15L235.65-15L235.65-12.90L231.90-12.90L231.90-4.50L231.90-4.50Q231.90-3.18 232.50-2.49L232.50-2.49L232.50-2.49Q233.10-1.80 234.15-1.80L234.15-1.80L234.15-1.80Q235.05-1.80 235.92-2.40L235.92-2.40L235.92-2.40Q236.31-2.67 236.70-3L236.70-3L237-3L238.05-1.20L238.05-1.20Q237.39-0.69 236.85-0.45L236.85-0.45L236.85-0.45Q235.41 0.30 233.85 0.30L233.85 0.30ZM246.15 0.30L246.15 0.30Q243.03 0.30 241.29-1.68L241.29-1.68L241.29-1.68Q239.55-3.66 239.55-7.50L239.55-7.50L239.55-7.50Q239.55-11.31 241.23-13.30L241.23-13.30L241.23-13.30Q242.91-15.30 245.70-15.30L245.70-15.30L245.70-15.30Q248.49-15.30 250.17-13.30L250.17-13.30L250.17-13.30Q251.85-11.31 251.85-7.50L251.85-7.50L251.85-7.05L251.25-6.45L242.55-6.45L242.55-6.45Q242.55-4.14 243.57-2.97L243.57-2.97L243.57-2.97Q244.59-1.80 246.45-1.80L246.45-1.80L246.45-1.80Q247.56-1.80 248.76-2.46L248.76-2.46L248.76-2.46Q249.39-2.82 249.75-3.15L249.75-3.15L250.05-3.15L251.10-1.35L251.10-1.35Q250.56-0.90 249.75-0.51L249.75-0.51L249.75-0.51Q248.19 0.30 246.15 0.30L246.15 0.30ZM242.55-8.55L248.85-8.55L248.85-8.55Q248.85-10.92 248.00-12.06L248.00-12.06L248.00-12.06Q247.14-13.20 245.70-13.20L245.70-13.20L245.70-13.20Q244.26-13.20 243.41-12.06L243.41-12.06L243.41-12.06Q242.55-10.92 242.55-8.55L242.55-8.55ZM256.20 0.30L256.20 0.30Q255.42 0.30 254.91-0.21L254.91-0.21L254.91-0.21Q254.40-0.72 254.40-1.50L254.40-1.50L254.40-1.50Q254.40-2.28 254.91-2.79L254.91-2.79L254.91-2.79Q255.42-3.30 256.20-3.30L256.20-3.30L256.20-3.30Q256.98-3.30 257.49-2.79L257.49-2.79L257.49-2.79Q258-2.28 258-1.50L258-1.50L258-1.50Q258-0.72 257.49-0.21L257.49-0.21L257.49-0.21Q256.98 0.30 256.20 0.30L256.20 0.30ZM262.20 0.30L262.20 0.30Q261.42 0.30 260.91-0.21L260.91-0.21L260.91-0.21Q260.40-0.72 260.40-1.50L260.40-1.50L260.40-1.50Q260.40-2.28 260.91-2.79L260.91-2.79L260.91-2.79Q261.42-3.30 262.20-3.30L262.20-3.30L262.20-3.30Q262.98-3.30 263.49-2.79L263.49-2.79L263.49-2.79Q264.00-2.28 264.00-1.50L264.00-1.50L264.00-1.50Q264.00-0.72 263.49-0.21L263.49-0.21L263.49-0.21Q262.98 0.30 262.20 0.30L262.20 0.30ZM268.20 0.30L268.20 0.30Q267.42 0.30 266.91-0.21L266.91-0.21L266.91-0.21Q266.40-0.72 266.40-1.50L266.40-1.50L266.40-1.50Q266.40-2.28 266.91-2.79L266.91-2.79L266.91-2.79Q267.42-3.30 268.20-3.30L268.20-3.30L268.20-3.30Q268.98-3.30 269.49-2.79L269.49-2.79L269.49-2.79Q270.00-2.28 270.00-1.50L270.00-1.50L270.00-1.50Q270.00-0.72 269.49-0.21L269.49-0.21L269.49-0.21Q268.98 0.30 268.20 0.30L268.20 0.30ZM285.15 0L282.15 0L282.15-20.10L283.05-21L285.15-21L285.15 0ZM291.15-17.40L291.15-17.40Q290.37-17.40 289.86-17.91L289.86-17.91L289.86-17.91Q289.35-18.42 289.35-19.20L289.35-19.20L289.35-19.20Q289.35-19.98 289.86-20.49L289.86-20.49L289.86-20.49Q290.37-21 291.15-21L291.15-21L291.15-21Q291.93-21 292.44-20.49L292.44-20.49L292.44-20.49Q292.95-19.98 292.95-19.20L292.95-19.20L292.95-19.20Q292.95-18.42 292.44-17.91L292.44-17.91L292.44-17.91Q291.93-17.40 291.15-17.40L291.15-17.40ZM292.65 0L289.65 0L289.65-15L292.65-15L292.65 0ZM297.45 0L297.45-12.90L295.50-12.90L295.50-15L297.45-15L297.45-16.50L297.45-16.50Q297.45-18.66 298.80-19.98L298.80-19.98L298.80-19.98Q300.15-21.30 302.40-21.30L302.40-21.30L302.40-21.30Q304.02-21.30 305.52-20.46L305.52-20.46L305.52-20.46Q306.24-20.07 306.75-19.65L306.75-19.65L305.70-17.85L305.40-17.85L305.40-17.85Q305.01-18.18 304.56-18.51L304.56-18.51L304.56-18.51Q303.48-19.20 302.70-19.20L302.70-19.20L302.70-19.20Q301.65-19.20 301.05-18.51L301.05-18.51L301.05-18.51Q300.45-17.82 300.45-16.50L300.45-16.50L300.45-15L304.50-15L304.50-12.90L300.45-12.90L300.45 0L297.45 0ZM313.20 0.30L313.20 0.30Q310.08 0.30 308.34-1.68L308.34-1.68L308.34-1.68Q306.60-3.66 306.60-7.50L306.60-7.50L306.60-7.50Q306.60-11.31 308.28-13.30L308.28-13.30L308.28-13.30Q309.96-15.30 312.75-15.30L312.75-15.30L312.75-15.30Q315.54-15.30 317.22-13.30L317.22-13.30L317.22-13.30Q318.90-11.31 318.90-7.50L318.90-7.50L318.90-7.05L318.30-6.45L309.60-6.45L309.60-6.45Q309.60-4.14 310.62-2.97L310.62-2.97L310.62-2.97Q311.64-1.80 313.50-1.80L313.50-1.80L313.50-1.80Q314.61-1.80 315.81-2.46L315.81-2.46L315.81-2.46Q316.44-2.82 316.80-3.15L316.80-3.15L317.10-3.15L318.15-1.35L318.15-1.35Q317.61-0.90 316.80-0.51L316.80-0.51L316.80-0.51Q315.24 0.30 313.20 0.30L313.20 0.30ZM309.60-8.55L315.90-8.55L315.90-8.55Q315.90-10.92 315.05-12.06L315.05-12.06L315.05-12.06Q314.19-13.20 312.75-13.20L312.75-13.20L312.75-13.20Q311.31-13.20 310.46-12.06L310.46-12.06L310.46-12.06Q309.60-10.92 309.60-8.55L309.60-8.55ZM337.05 0.30L337.05 0.30Q333.93 0.30 332.19-1.68L332.19-1.68L332.19-1.68Q330.45-3.66 330.45-7.50L330.45-7.50L330.45-7.50Q330.45-11.34 332.14-13.32L332.14-13.32L332.14-13.32Q333.84-15.30 336.75-15.30L336.75-15.30L336.75-15.30Q338.73-15.30 340.35-14.46L340.35-14.46L340.35-14.46Q341.13-14.10 341.70-13.65L341.70-13.65L340.65-11.85L340.35-11.85L340.35-11.85Q339.96-12.15 339.36-12.51L339.36-12.51L339.36-12.51Q338.10-13.20 337.05-13.20L337.05-13.20L337.05-13.20Q335.37-13.20 334.41-11.85L334.41-11.85L334.41-11.85Q333.45-10.50 333.45-7.50L333.45-7.50L333.45-7.50Q333.45-4.47 334.45-3.13L334.45-3.13L334.45-3.13Q335.46-1.80 337.35-1.80L337.35-1.80L337.35-1.80Q338.46-1.80 339.66-2.46L339.66-2.46L339.66-2.46Q340.29-2.82 340.65-3.15L340.65-3.15L340.95-3.15L342-1.35L342-1.35Q341.46-0.90 340.65-0.51L340.65-0.51L340.65-0.51Q339.09 0.30 337.05 0.30L337.05 0.30ZM344.85 0L344.85-20.10L345.75-21L347.85-21L347.85-13.80L347.85-13.80Q348.33-14.28 348.84-14.55L348.84-14.55L348.84-14.55Q350.28-15.30 351.75-15.30L351.75-15.30L351.75-15.30Q354.00-15.30 355.42-13.88L355.42-13.88L355.42-13.88Q356.85-12.45 356.85-10.20L356.85-10.20L356.85 0L353.85 0L353.85-10.20L353.85-10.20Q353.85-11.46 353.05-12.25L353.05-12.25L353.05-12.25Q352.26-13.05 351.00-13.05L351.00-13.05L351.00-13.05Q349.89-13.05 348.75-12.15L348.75-12.15L348.75-12.15Q348.27-11.73 347.85-11.25L347.85-11.25L347.85 0L344.85 0ZM365.25 0.30L365.25 0.30Q362.91 0.30 361.60-0.94L361.60-0.94L361.60-0.94Q360.30-2.19 360.30-4.35L360.30-4.35L360.30-4.35Q360.30-6.48 361.84-7.67L361.84-7.67L361.84-7.67Q363.39-8.85 366.75-8.85L366.75-8.85L369.15-8.85L369.15-9.60L369.15-9.60Q369.15-11.37 368.32-12.29L368.32-12.29L368.32-12.29Q367.50-13.20 366-13.20L366-13.20L366-13.20Q364.92-13.20 363.66-12.51L363.66-12.51L363.66-12.51Q363.03-12.15 362.70-11.85L362.70-11.85L362.40-11.85L361.35-13.65L361.35-13.65Q361.95-14.10 362.70-14.46L362.70-14.46L362.70-14.46Q364.32-15.30 366.30-15.30L366.30-15.30L366.30-15.30Q368.01-15.30 369.33-14.56L369.33-14.56L369.33-14.56Q370.65-13.83 371.40-12.53L371.40-12.53L371.40-12.53Q372.15-11.22 372.15-9.60L372.15-9.60L372.15 0L370.05 0L369.75-1.80L369.60-1.80L369.60-1.80Q369.18-1.20 368.55-0.75L368.55-0.75L368.55-0.75Q367.23 0.30 365.25 0.30L365.25 0.30ZM366-1.95L366-1.95Q367.11-1.95 368.25-2.85L368.25-2.85L368.25-2.85Q368.76-3.27 369.15-3.75L369.15-3.75L369.15-6.75L366.75-6.75L366.75-6.75Q365.04-6.75 364.17-6.09L364.17-6.09L364.17-6.09Q363.30-5.43 363.30-4.35L363.30-4.35L363.30-4.35Q363.30-3.18 363.97-2.56L363.97-2.56L363.97-2.56Q364.65-1.95 366-1.95L366-1.95ZM376.50 0L376.50-15L378.60-15L378.90-13.20L379.05-13.20L379.05-13.20Q379.38-13.68 380.10-14.25L380.10-14.25L380.10-14.25Q381.57-15.30 383.40-15.30L383.40-15.30L383.40-15.30Q385.65-15.30 387.07-13.88L387.07-13.88L387.07-13.88Q388.50-12.45 388.50-10.20L388.50-10.20L388.50 0L385.50 0L385.50-10.20L385.50-10.20Q385.50-11.46 384.70-12.25L384.70-12.25L384.70-12.25Q383.91-13.05 382.65-13.05L382.65-13.05L382.65-13.05Q381.54-13.05 380.40-12.15L380.40-12.15L380.40-12.15Q379.92-11.73 379.50-11.25L379.50-11.25L379.50 0L376.50 0ZM397.95 6.30L397.95 6.30Q395.91 6.30 394.35 5.49L394.35 5.49L394.35 5.49Q393.54 5.10 393 4.65L393 4.65L394.05 2.85L394.35 2.85L394.35 2.85Q394.65 3.15 395.31 3.54L395.31 3.54L395.31 3.54Q396.51 4.20 397.65 4.20L397.65 4.20L397.65 4.20Q399.57 4.20 400.49 3.27L400.49 3.27L400.49 3.27Q401.40 2.34 401.40 0.30L401.40 0.30L401.40-0.60L401.40-0.60Q400.95-0.33 400.41-0.15L400.41-0.15L400.41-0.15Q399.30 0.30 398.10 0.30L398.10 0.30L398.10 0.30Q395.40 0.30 393.75-1.69L393.75-1.69L393.75-1.69Q392.10-3.69 392.10-7.50L392.10-7.50L392.10-7.50Q392.10-10.02 392.84-11.78L392.84-11.78L392.84-11.78Q393.57-13.53 394.80-14.41L394.80-14.41L394.80-14.41Q396.03-15.30 397.50-15.30L397.50-15.30L397.50-15.30Q399.33-15.30 400.80-14.25L400.80-14.25L400.80-14.25Q401.52-13.68 401.85-13.20L401.85-13.20L402-13.20L402.30-15L404.40-15L404.40 0.30L404.40 0.30Q404.40 3.03 402.68 4.67L402.68 4.67L402.68 4.67Q400.95 6.30 397.95 6.30L397.95 6.30ZM398.55-1.80L398.55-1.80Q399.57-1.80 400.59-2.10L400.59-2.10L400.59-2.10Q401.13-2.25 401.40-2.40L401.40-2.40L401.40-11.25L401.40-11.25Q400.98-11.76 400.50-12.15L400.50-12.15L400.50-12.15Q399.36-13.05 398.25-13.05L398.25-13.05L398.25-13.05Q396.87-13.05 395.99-11.70L395.99-11.70L395.99-11.70Q395.10-10.35 395.10-7.50L395.10-7.50L395.10-7.50Q395.10-4.53 396.05-3.17L396.05-3.17L396.05-3.17Q396.99-1.80 398.55-1.80L398.55-1.80ZM410.40-17.40L410.40-17.40Q409.62-17.40 409.11-17.91L409.11-17.91L409.11-17.91Q408.60-18.42 408.60-19.20L408.60-19.20L408.60-19.20Q408.60-19.98 409.11-20.49L409.11-20.49L409.11-20.49Q409.62-21 410.40-21L410.40-21L410.40-21Q411.18-21 411.69-20.49L411.69-20.49L411.69-20.49Q412.20-19.98 412.20-19.20L412.20-19.20L412.20-19.20Q412.20-18.42 411.69-17.91L411.69-17.91L411.69-17.91Q411.18-17.40 410.40-17.40L410.40-17.40ZM411.90 0L408.90 0L408.90-15L411.90-15L411.90 0ZM416.40 0L416.40-15L418.50-15L418.80-13.20L418.95-13.20L418.95-13.20Q419.28-13.68 420.00-14.25L420.00-14.25L420.00-14.25Q421.47-15.30 423.30-15.30L423.30-15.30L423.30-15.30Q425.55-15.30 426.98-13.88L426.98-13.88L426.98-13.88Q428.40-12.45 428.40-10.20L428.40-10.20L428.40 0L425.40 0L425.40-10.20L425.40-10.20Q425.40-11.46 424.61-12.25L424.61-12.25L424.61-12.25Q423.81-13.05 422.55-13.05L422.55-13.05L422.55-13.05Q421.44-13.05 420.30-12.15L420.30-12.15L420.30-12.15Q419.82-11.73 419.40-11.25L419.40-11.25L419.40 0L416.40 0ZM437.85 6.30L437.85 6.30Q435.81 6.30 434.25 5.49L434.25 5.49L434.25 5.49Q433.44 5.10 432.90 4.65L432.90 4.65L433.95 2.85L434.25 2.85L434.25 2.85Q434.55 3.15 435.21 3.54L435.21 3.54L435.21 3.54Q436.41 4.20 437.55 4.20L437.55 4.20L437.55 4.20Q439.47 4.20 440.39 3.27L440.39 3.27L440.39 3.27Q441.30 2.34 441.30 0.30L441.30 0.30L441.30-0.60L441.30-0.60Q440.85-0.33 440.31-0.15L440.31-0.15L440.31-0.15Q439.20 0.30 438.00 0.30L438.00 0.30L438.00 0.30Q435.30 0.30 433.65-1.69L433.65-1.69L433.65-1.69Q432.00-3.69 432.00-7.50L432.00-7.50L432.00-7.50Q432.00-10.02 432.74-11.78L432.74-11.78L432.74-11.78Q433.47-13.53 434.70-14.41L434.70-14.41L434.70-14.41Q435.93-15.30 437.40-15.30L437.40-15.30L437.40-15.30Q439.23-15.30 440.70-14.25L440.70-14.25L440.70-14.25Q441.42-13.68 441.75-13.20L441.75-13.20L441.90-13.20L442.20-15L444.30-15L444.30 0.30L444.30 0.30Q444.30 3.03 442.58 4.67L442.58 4.67L442.58 4.67Q440.85 6.30 437.85 6.30L437.85 6.30ZM438.45-1.80L438.45-1.80Q439.47-1.80 440.49-2.10L440.49-2.10L440.49-2.10Q441.03-2.25 441.30-2.40L441.30-2.40L441.30-11.25L441.30-11.25Q440.88-11.76 440.40-12.15L440.40-12.15L440.40-12.15Q439.26-13.05 438.15-13.05L438.15-13.05L438.15-13.05Q436.77-13.05 435.89-11.70L435.89-11.70L435.89-11.70Q435.00-10.35 435.00-7.50L435.00-7.50L435.00-7.50Q435.00-4.53 435.95-3.17L435.95-3.17L435.95-3.17Q436.89-1.80 438.45-1.80L438.45-1.80ZM459.00-17.40L459.00-17.40Q458.22-17.40 457.71-17.91L457.71-17.91L457.71-17.91Q457.20-18.42 457.20-19.20L457.20-19.20L457.20-19.20Q457.20-19.98 457.71-20.49L457.71-20.49L457.71-20.49Q458.22-21 459.00-21L459.00-21L459.00-21Q459.78-21 460.29-20.49L460.29-20.49L460.29-20.49Q460.80-19.98 460.80-19.20L460.80-19.20L460.80-19.20Q460.80-18.42 460.29-17.91L460.29-17.91L460.29-17.91Q459.78-17.40 459.00-17.40L459.00-17.40ZM460.50 0L457.50 0L457.50-15L460.50-15L460.50 0ZM465.00 0L465.00-15L467.10-15L467.40-13.20L467.55-13.20L467.55-13.20Q467.88-13.68 468.60-14.25L468.60-14.25L468.60-14.25Q470.07-15.30 471.90-15.30L471.90-15.30L471.90-15.30Q474.15-15.30 475.58-13.88L475.58-13.88L475.58-13.88Q477.00-12.45 477.00-10.20L477.00-10.20L477.00 0L474.00 0L474.00-10.20L474.00-10.20Q474.00-11.46 473.21-12.25L473.21-12.25L473.21-12.25Q472.41-13.05 471.15-13.05L471.15-13.05L471.15-13.05Q470.04-13.05 468.90-12.15L468.90-12.15L468.90-12.15Q468.42-11.73 468.00-11.25L468.00-11.25L468.00 0L465.00 0ZM481.35 0L481.35-15L483.45-15L483.75-13.20L483.90-13.20L483.90-13.20Q484.23-13.68 484.95-14.25L484.95-14.25L484.95-14.25Q486.42-15.30 488.25-15.30L488.25-15.30L488.25-15.30Q490.50-15.30 491.93-13.88L491.93-13.88L491.93-13.88Q493.35-12.45 493.35-10.20L493.35-10.20L493.35 0L490.35 0L490.35-10.20L490.35-10.20Q490.35-11.46 489.56-12.25L489.56-12.25L489.56-12.25Q488.76-13.05 487.50-13.05L487.50-13.05L487.50-13.05Q486.39-13.05 485.25-12.15L485.25-12.15L485.25-12.15Q484.77-11.73 484.35-11.25L484.35-11.25L484.35 0L481.35 0ZM503.40 0.30L503.40 0.30Q500.37 0.30 498.66-1.68L498.66-1.68L498.66-1.68Q496.95-3.66 496.95-7.50L496.95-7.50L496.95-7.50Q496.95-11.34 498.66-13.32L498.66-13.32L498.66-13.32Q500.37-15.30 503.40-15.30L503.40-15.30L503.40-15.30Q506.40-15.30 508.13-13.32L508.13-13.32L508.13-13.32Q509.85-11.34 509.85-7.50L509.85-7.50L509.85-7.50Q509.85-3.66 508.13-1.68L508.13-1.68L508.13-1.68Q506.40 0.30 503.40 0.30L503.40 0.30ZM503.40-1.80L503.40-1.80Q504.96-1.80 505.91-3.17L505.91-3.17L505.91-3.17Q506.85-4.53 506.85-7.50L506.85-7.50L506.85-7.50Q506.85-10.47 505.91-11.83L505.91-11.83L505.91-11.83Q504.96-13.20 503.40-13.20L503.40-13.20L503.40-13.20Q501.84-13.20 500.90-11.83L500.90-11.83L500.90-11.83Q499.95-10.47 499.95-7.50L499.95-7.50L499.95-7.50Q499.95-4.53 500.90-3.17L500.90-3.17L500.90-3.17Q501.84-1.80 503.40-1.80L503.40-1.80ZM516.90 0L512.10-15L514.80-15L517.95-5.10L517.95-5.10Q518.07-4.77 518.15-4.33L518.15-4.33L518.15-4.33Q518.22-3.90 518.25-3.72L518.25-3.72L518.34-3L518.46-3L518.55-3.72L518.55-3.72Q518.58-3.90 518.66-4.33L518.66-4.33L518.66-4.33Q518.73-4.77 518.85-5.10L518.85-5.10L522.00-15L524.49-15L519.69 0L516.90 0ZM531.75 0.30L531.75 0.30Q529.41 0.30 528.11-0.94L528.11-0.94L528.11-0.94Q526.80-2.19 526.80-4.35L526.80-4.35L526.80-4.35Q526.80-6.48 528.35-7.67L528.35-7.67L528.35-7.67Q529.89-8.85 533.25-8.85L533.25-8.85L535.65-8.85L535.65-9.60L535.65-9.60Q535.65-11.37 534.83-12.29L534.83-12.29L534.83-12.29Q534-13.20 532.50-13.20L532.50-13.20L532.50-13.20Q531.42-13.20 530.16-12.51L530.16-12.51L530.16-12.51Q529.53-12.15 529.20-11.85L529.20-11.85L528.90-11.85L527.85-13.65L527.85-13.65Q528.45-14.10 529.20-14.46L529.20-14.46L529.20-14.46Q530.82-15.30 532.80-15.30L532.80-15.30L532.80-15.30Q534.51-15.30 535.83-14.56L535.83-14.56L535.83-14.56Q537.15-13.83 537.90-12.53L537.90-12.53L537.90-12.53Q538.65-11.22 538.65-9.60L538.65-9.60L538.65 0L536.55 0L536.25-1.80L536.10-1.80L536.10-1.80Q535.68-1.20 535.05-0.75L535.05-0.75L535.05-0.75Q533.73 0.30 531.75 0.30L531.75 0.30ZM532.50-1.95L532.50-1.95Q533.61-1.95 534.75-2.85L534.75-2.85L534.75-2.85Q535.26-3.27 535.65-3.75L535.65-3.75L535.65-6.75L533.25-6.75L533.25-6.75Q531.54-6.75 530.67-6.09L530.67-6.09L530.67-6.09Q529.80-5.43 529.80-4.35L529.80-4.35L529.80-4.35Q529.80-3.18 530.48-2.56L530.48-2.56L530.48-2.56Q531.15-1.95 532.50-1.95L532.50-1.95ZM548.55 0.30L548.55 0.30Q546.30 0.30 544.95-1.02L544.95-1.02L544.95-1.02Q543.60-2.34 543.60-4.50L543.60-4.50L543.60-12.90L541.35-12.90L541.35-14.70L545.25-18.60L546.60-18.60L546.60-15L550.35-15L550.35-12.90L546.60-12.90L546.60-4.50L546.60-4.50Q546.60-3.18 547.20-2.49L547.20-2.49L547.20-2.49Q547.80-1.80 548.85-1.80L548.85-1.80L548.85-1.80Q549.75-1.80 550.62-2.40L550.62-2.40L550.62-2.40Q551.01-2.67 551.40-3L551.40-3L551.70-3L552.75-1.20L552.75-1.20Q552.09-0.69 551.55-0.45L551.55-0.45L551.55-0.45Q550.11 0.30 548.55 0.30L548.55 0.30ZM556.50-17.40L556.50-17.40Q555.72-17.40 555.21-17.91L555.21-17.91L555.21-17.91Q554.70-18.42 554.70-19.20L554.70-19.20L554.70-19.20Q554.70-19.98 555.21-20.49L555.21-20.49L555.21-20.49Q555.72-21 556.50-21L556.50-21L556.50-21Q557.28-21 557.79-20.49L557.79-20.49L557.79-20.49Q558.30-19.98 558.30-19.20L558.30-19.20L558.30-19.20Q558.30-18.42 557.79-17.91L557.79-17.91L557.79-17.91Q557.28-17.40 556.50-17.40L556.50-17.40ZM558 0L555 0L555-15L558-15L558 0ZM568.20 0.30L568.20 0.30Q565.17 0.30 563.46-1.68L563.46-1.68L563.46-1.68Q561.75-3.66 561.75-7.50L561.75-7.50L561.75-7.50Q561.75-11.34 563.46-13.32L563.46-13.32L563.46-13.32Q565.17-15.30 568.20-15.30L568.20-15.30L568.20-15.30Q571.20-15.30 572.92-13.32L572.92-13.32L572.92-13.32Q574.65-11.34 574.65-7.50L574.65-7.50L574.65-7.50Q574.65-3.66 572.92-1.68L572.92-1.68L572.92-1.68Q571.20 0.30 568.20 0.30L568.20 0.30ZM568.20-1.80L568.20-1.80Q569.76-1.80 570.71-3.17L570.71-3.17L570.71-3.17Q571.65-4.53 571.65-7.50L571.65-7.50L571.65-7.50Q571.65-10.47 570.71-11.83L570.71-11.83L570.71-11.83Q569.76-13.20 568.20-13.20L568.20-13.20L568.20-13.20Q566.64-13.20 565.70-11.83L565.70-11.83L565.70-11.83Q564.75-10.47 564.75-7.50L564.75-7.50L564.75-7.50Q564.75-4.53 565.70-3.17L565.70-3.17L565.70-3.17Q566.64-1.80 568.20-1.80L568.20-1.80ZM578.40 0L578.40-15L580.50-15L580.80-13.20L580.95-13.20L580.95-13.20Q581.28-13.68 582-14.25L582-14.25L582-14.25Q583.47-15.30 585.30-15.30L585.30-15.30L585.30-15.30Q587.55-15.30 588.98-13.88L588.98-13.88L588.98-13.88Q590.40-12.45 590.40-10.20L590.40-10.20L590.40 0L587.40 0L587.40-10.20L587.40-10.20Q587.40-11.46 586.61-12.25L586.61-12.25L586.61-12.25Q585.81-13.05 584.55-13.05L584.55-13.05L584.55-13.05Q583.44-13.05 582.30-12.15L582.30-12.15L582.30-12.15Q581.82-11.73 581.40-11.25L581.40-11.25L581.40 0L578.40 0ZM609 0.30L609 0.30Q606.75 0.30 605.40-1.02L605.40-1.02L605.40-1.02Q604.05-2.34 604.05-4.50L604.05-4.50L604.05-12.90L601.80-12.90L601.80-14.70L605.70-18.60L607.05-18.60L607.05-15L610.80-15L610.80-12.90L607.05-12.90L607.05-4.50L607.05-4.50Q607.05-3.18 607.65-2.49L607.65-2.49L607.65-2.49Q608.25-1.80 609.30-1.80L609.30-1.80L609.30-1.80Q610.20-1.80 611.07-2.40L611.07-2.40L611.07-2.40Q611.46-2.67 611.85-3L611.85-3L612.15-3L613.20-1.20L613.20-1.20Q612.54-0.69 612-0.45L612-0.45L612-0.45Q610.56 0.30 609 0.30L609 0.30ZM619.50 0.30L619.50 0.30Q617.16 0.30 615.86-0.94L615.86-0.94L615.86-0.94Q614.55-2.19 614.55-4.35L614.55-4.35L614.55-4.35Q614.55-6.48 616.10-7.67L616.10-7.67L616.10-7.67Q617.64-8.85 621-8.85L621-8.85L623.40-8.85L623.40-9.60L623.40-9.60Q623.40-11.37 622.58-12.29L622.58-12.29L622.58-12.29Q621.75-13.20 620.25-13.20L620.25-13.20L620.25-13.20Q619.17-13.20 617.91-12.51L617.91-12.51L617.91-12.51Q617.28-12.15 616.95-11.85L616.95-11.85L616.65-11.85L615.60-13.65L615.60-13.65Q616.20-14.10 616.95-14.46L616.95-14.46L616.95-14.46Q618.57-15.30 620.55-15.30L620.55-15.30L620.55-15.30Q622.26-15.30 623.58-14.56L623.58-14.56L623.58-14.56Q624.90-13.83 625.65-12.53L625.65-12.53L625.65-12.53Q626.40-11.22 626.40-9.60L626.40-9.60L626.40 0L624.30 0L624-1.80L623.85-1.80L623.85-1.80Q623.43-1.20 622.80-0.75L622.80-0.75L622.80-0.75Q621.48 0.30 619.50 0.30L619.50 0.30ZM620.25-1.95L620.25-1.95Q621.36-1.95 622.50-2.85L622.50-2.85L622.50-2.85Q623.01-3.27 623.40-3.75L623.40-3.75L623.40-6.75L621-6.75L621-6.75Q619.29-6.75 618.42-6.09L618.42-6.09L618.42-6.09Q617.55-5.43 617.55-4.35L617.55-4.35L617.55-4.35Q617.55-3.18 618.23-2.56L618.23-2.56L618.23-2.56Q618.90-1.95 620.25-1.95L620.25-1.95ZM633.75 0L630.75 0L630.75-20.10L631.65-21L633.75-21L633.75-8.10L638.85-15L642.30-15L636.90-7.80L642.60 0L639.15 0L633.75-7.50L633.75 0ZM651 0.30L651 0.30Q647.88 0.30 646.14-1.68L646.14-1.68L646.14-1.68Q644.40-3.66 644.40-7.50L644.40-7.50L644.40-7.50Q644.40-11.31 646.08-13.30L646.08-13.30L646.08-13.30Q647.76-15.30 650.55-15.30L650.55-15.30L650.55-15.30Q653.34-15.30 655.02-13.30L655.02-13.30L655.02-13.30Q656.70-11.31 656.70-7.50L656.70-7.50L656.70-7.05L656.10-6.45L647.40-6.45L647.40-6.45Q647.40-4.14 648.42-2.97L648.42-2.97L648.42-2.97Q649.44-1.80 651.30-1.80L651.30-1.80L651.30-1.80Q652.41-1.80 653.61-2.46L653.61-2.46L653.61-2.46Q654.24-2.82 654.60-3.15L654.60-3.15L654.90-3.15L655.95-1.35L655.95-1.35Q655.41-0.90 654.60-0.51L654.60-0.51L654.60-0.51Q653.04 0.30 651 0.30L651 0.30ZM647.40-8.55L653.70-8.55L653.70-8.55Q653.70-10.92 652.85-12.06L652.85-12.06L652.85-12.06Q651.99-13.20 650.55-13.20L650.55-13.20L650.55-13.20Q649.11-13.20 648.25-12.06L648.25-12.06L648.25-12.06Q647.40-10.92 647.40-8.55L647.40-8.55ZM664.65 0.30L664.65 0.30Q662.19 0.30 660.51-0.51L660.51-0.51L660.51-0.51Q659.64-0.90 659.10-1.35L659.10-1.35L660.15-3.15L660.45-3.15L660.45-3.15Q660.78-2.85 661.50-2.46L661.50-2.46L661.50-2.46Q662.88-1.80 664.35-1.80L664.35-1.80L664.35-1.80Q666.15-1.80 666.97-2.37L666.97-2.37L666.97-2.37Q667.80-2.94 667.80-3.90L667.80-3.90L667.80-3.90Q667.80-4.89 666.94-5.40L666.94-5.40L666.94-5.40Q666.09-5.91 664.29-6.51L664.29-6.51L664.29-6.51Q662.70-7.05 661.74-7.50L661.74-7.50L661.74-7.50Q660.78-7.95 660.09-8.79L660.09-8.79L660.09-8.79Q659.40-9.63 659.40-10.95L659.40-10.95L659.40-10.95Q659.40-12.96 660.82-14.13L660.82-14.13L660.82-14.13Q662.25-15.30 665.10-15.30L665.10-15.30L665.10-15.30Q667.23-15.30 668.97-14.46L668.97-14.46L668.97-14.46Q669.81-14.07 670.35-13.65L670.35-13.65L669.30-11.85L669-11.85L669-11.85Q668.55-12.18 667.98-12.51L667.98-12.51L667.98-12.51Q666.66-13.20 665.40-13.20L665.40-13.20L665.40-13.20Q663.90-13.20 663.15-12.64L663.15-12.64L663.15-12.64Q662.40-12.09 662.40-11.25L662.40-11.25L662.40-11.25Q662.40-10.26 663.25-9.75L663.25-9.75L663.25-9.75Q664.11-9.24 665.91-8.64L665.91-8.64L665.91-8.64Q667.50-8.10 668.46-7.65L668.46-7.65L668.46-7.65Q669.42-7.20 670.11-6.36L670.11-6.36L670.11-6.36Q670.80-5.52 670.80-4.20L670.80-4.20L670.80-4.20Q670.80-2.07 669.30-0.89L669.30-0.89L669.30-0.89Q667.80 0.30 664.65 0.30L664.65 0.30ZM688.35 0.30L688.35 0.30Q686.10 0.30 684.75-1.02L684.75-1.02L684.75-1.02Q683.40-2.34 683.40-4.50L683.40-4.50L683.40-12.90L681.15-12.90L681.15-14.70L685.05-18.60L686.40-18.60L686.40-15L690.15-15L690.15-12.90L686.40-12.90L686.40-4.50L686.40-4.50Q686.40-3.18 687-2.49L687-2.49L687-2.49Q687.60-1.80 688.65-1.80L688.65-1.80L688.65-1.80Q689.55-1.80 690.42-2.40L690.42-2.40L690.42-2.40Q690.81-2.67 691.20-3L691.20-3L691.50-3L692.55-1.20L692.55-1.20Q691.89-0.69 691.35-0.45L691.35-0.45L691.35-0.45Q689.91 0.30 688.35 0.30L688.35 0.30ZM696.30-17.40L696.30-17.40Q695.52-17.40 695.01-17.91L695.01-17.91L695.01-17.91Q694.50-18.42 694.50-19.20L694.50-19.20L694.50-19.20Q694.50-19.98 695.01-20.49L695.01-20.49L695.01-20.49Q695.52-21 696.30-21L696.30-21L696.30-21Q697.08-21 697.59-20.49L697.59-20.49L697.59-20.49Q698.10-19.98 698.10-19.20L698.10-19.20L698.10-19.20Q698.10-18.42 697.59-17.91L697.59-17.91L697.59-17.91Q697.08-17.40 696.30-17.40L696.30-17.40ZM697.80 0L694.80 0L694.80-15L697.80-15L697.80 0ZM702.30 0L702.30-15L704.40-15L704.70-13.20L704.85-13.20L704.85-13.20Q705.27-13.68 705.93-14.25L705.93-14.25L705.93-14.25Q707.34-15.30 708.90-15.30L708.90-15.30L708.90-15.30Q710.64-15.30 711.93-14.25L711.93-14.25L711.93-14.25Q712.53-13.71 712.80-13.20L712.80-13.20L712.80-13.20Q713.22-13.65 714.03-14.25L714.03-14.25L714.03-14.25Q715.71-15.30 717.30-15.30L717.30-15.30L717.30-15.30Q718.65-15.30 719.75-14.65L719.75-14.65L719.75-14.65Q720.84-14.01 721.47-12.84L721.47-12.84L721.47-12.84Q722.10-11.67 722.10-10.20L722.10-10.20L722.10 0L719.10 0L719.10-10.20L719.10-10.20Q719.10-11.43 718.35-12.24L718.35-12.24L718.35-12.24Q717.60-13.05 716.55-13.05L716.55-13.05L716.55-13.05Q715.62-13.05 714.57-12.30L714.57-12.30L714.57-12.30Q714.24-12.09 713.70-11.55L713.70-11.55L713.70 0L710.70 0L710.70-10.20L710.70-10.20Q710.70-11.43 709.95-12.24L709.95-12.24L709.95-12.24Q709.20-13.05 708.15-13.05L708.15-13.05L708.15-13.05Q707.19-13.05 706.17-12.15L706.17-12.15L706.17-12.15Q705.78-11.82 705.30-11.25L705.30-11.25L705.30 0L702.30 0ZM732.30 0.30L732.30 0.30Q729.18 0.30 727.44-1.68L727.44-1.68L727.44-1.68Q725.70-3.66 725.70-7.50L725.70-7.50L725.70-7.50Q725.70-11.31 727.38-13.30L727.38-13.30L727.38-13.30Q729.06-15.30 731.85-15.30L731.85-15.30L731.85-15.30Q734.64-15.30 736.32-13.30L736.32-13.30L736.32-13.30Q738.00-11.31 738.00-7.50L738.00-7.50L738.00-7.05L737.40-6.45L728.70-6.45L728.70-6.45Q728.70-4.14 729.72-2.97L729.72-2.97L729.72-2.97Q730.74-1.80 732.60-1.80L732.60-1.80L732.60-1.80Q733.71-1.80 734.91-2.46L734.91-2.46L734.91-2.46Q735.54-2.82 735.90-3.15L735.90-3.15L736.20-3.15L737.25-1.35L737.25-1.35Q736.71-0.90 735.90-0.51L735.90-0.51L735.90-0.51Q734.34 0.30 732.30 0.30L732.30 0.30ZM728.70-8.55L735.00-8.55L735.00-8.55Q735.00-10.92 734.14-12.06L734.14-12.06L734.14-12.06Q733.29-13.20 731.85-13.20L731.85-13.20L731.85-13.20Q730.41-13.20 729.55-12.06L729.55-12.06L729.55-12.06Q728.70-10.92 728.70-8.55L728.70-8.55ZM742.35 0.30L742.35 0.30Q741.57 0.30 741.06-0.21L741.06-0.21L741.06-0.21Q740.55-0.72 740.55-1.50L740.55-1.50L740.55-1.50Q740.55-2.28 741.06-2.79L741.06-2.79L741.06-2.79Q741.57-3.30 742.35-3.30L742.35-3.30L742.35-3.30Q743.13-3.30 743.64-2.79L743.64-2.79L743.64-2.79Q744.15-2.28 744.15-1.50L744.15-1.50L744.15-1.50Q744.15-0.72 743.64-0.21L743.64-0.21L743.64-0.21Q743.13 0.30 742.35 0.30L742.35 0.30Z" fill="#444"></path></g></g><style>text {
  font-size: 64px;
  font-family: Arial Black;
  dominant-baseline: central;
  text-anchor: middle;
}</style></svg>